<svg xmlns="http://www.w3.org/2000/svg" xmlns:xlink="http://www.w3.org/1999/xlink" viewBox="0 0 96.16 239.51"><defs><style>.cls-1{fill:#2565a2;}.cls-2{fill:#ffb69d;}.cls-3{fill:#ffcaac;}.cls-4{fill:#ffddc0;}.cls-5{fill:#ffa2b4;opacity:0.22;}.cls-6{fill:#fff;}.cls-7{fill:url(#linear-gradient);}.cls-8{fill:url(#linear-gradient-2);}.cls-9{fill:#ffbb9f;}.cls-10{fill:#000a10;}.cls-11{fill:#1e3f6d;}.cls-12{fill:#00192e;}.cls-13{fill:#333;}.cls-14{fill:#222224;}.cls-15{fill:#4d4d4d;}.cls-16{fill:#0071bc;}.cls-17{fill:#d49529;}</style><linearGradient id="linear-gradient" x1="34.09" y1="49.94" x2="34.09" y2="39.2" gradientUnits="userSpaceOnUse"><stop offset="0" stop-color="#ffc700"/><stop offset="0.02" stop-color="#f7bd00"/><stop offset="0.13" stop-color="#c68602"/><stop offset="0.21" stop-color="#a86403"/><stop offset="0.25" stop-color="#9d5703"/><stop offset="0.36" stop-color="#915004"/><stop offset="0.55" stop-color="#7e4605"/><stop offset="0.69" stop-color="#784205"/><stop offset="0.78" stop-color="#6d3b06"/><stop offset="0.94" stop-color="#4f290a"/><stop offset="1" stop-color="#42210b"/></linearGradient><linearGradient id="linear-gradient-2" x1="30.43" y1="49.94" x2="30.43" y2="39.2" gradientTransform="matrix(-1, 0, 0, 1, 90.48, 0)" xlink:href="#linear-gradient"/></defs><g id="Layer_2" data-name="Layer 2"><g id="Layer_3" data-name="Layer 3"><ellipse class="cls-1" cx="48.16" cy="86.51" rx="14" ry="4"/><rect class="cls-2" x="40.89" y="77.3" width="13.82" height="13.22"/><circle class="cls-3" cx="15.6" cy="48.15" r="8.95"/><circle class="cls-3" cx="78.26" cy="48.15" r="8.95"/><path class="cls-4" d="M50.51,5.19C84.53,5.19,79.16,52,79.16,52c3.58,13.87-12.54,31.08-30.44,31.08C29,83.06,11.13,65.85,14.71,52,14.71,52,5.76,5.19,50.51,5.19Z"/><ellipse class="cls-5" cx="67.97" cy="53.53" rx="5.82" ry="2.69"/><ellipse class="cls-5" cx="26.85" cy="53.53" rx="5.82" ry="2.69"/><path class="cls-6" d="M23.4,44.17c0,4.67,5.24,8.46,9.39,8.46s7.52-3.79,7.52-8.46S37,33.83,32.79,33.83,23.4,39.5,23.4,44.17Z"/><path d="M23.62,44.17c0,4.61,4.78,8.28,9.19,8.44,4.83,0,8-5.3,7.23-9.73-.57-4.05-3.6-9.65-8.4-8.64a11.81,11.81,0,0,0-8,9.93Zm-.45,0c.12-6.65,9.38-14.89,14.59-7.76,3.6,4.37,4.06,12.53-1.64,15.34-5.18,2.84-12.7-1.74-12.95-7.58Z"/><ellipse class="cls-7" cx="34.09" cy="44.57" rx="4.16" ry="5.37"/><ellipse class="cls-6" cx="34.09" cy="44.57" rx="2.08" ry="2.69"/><path class="cls-6" d="M70.75,44.17c0,4.67-5.25,8.46-9.4,8.46s-7.52-3.79-7.52-8.46,3.37-10.34,7.52-10.34S70.75,39.5,70.75,44.17Z"/><path d="M71,44.17C70.72,50,63.2,54.59,58,51.75c-5.69-2.81-5.24-11-1.64-15.34,5.21-7.12,14.47,1.11,14.59,7.76Zm-.45,0a11.82,11.82,0,0,0-8-9.93c-4.81-1-7.84,4.59-8.41,8.64-.73,4.43,2.4,9.78,7.23,9.73,4.41-.16,9.16-3.83,9.19-8.44Z"/><ellipse class="cls-8" cx="60.05" cy="44.57" rx="4.16" ry="5.37"/><ellipse class="cls-6" cx="60.05" cy="44.57" rx="2.08" ry="2.69"/><path d="M68.44,31.23C65,26.91,60.68,27,56.17,29.56a.26.26,0,0,1-.3-.4c3.25-2.81,8.73-2.75,11.64.52.42.43.77.93,1.16,1.38a.14.14,0,0,1,0,.2.14.14,0,0,1-.21,0Z"/><path d="M25.48,31.06a8.75,8.75,0,0,1,5.92-3.87,9.08,9.08,0,0,1,6.87,2,.26.26,0,0,1-.3.4C33.46,27,29.15,26.91,25.7,31.23c-.1.16-.35,0-.22-.17Z"/><path class="cls-9" d="M45.3,50.09l-4.82,8.35a1.07,1.07,0,0,0,.93,1.6H52.48a1,1,0,0,0,.88-1.52l-4.87-8.43A1.84,1.84,0,0,0,45.3,50.09Z"/><path d="M40.31,71.93c7.9-.19,16.85-.81,22.63-6.86.11-.13.33.05.2.18a18.36,18.36,0,0,1-10.62,5.88,51.13,51.13,0,0,1-12.22,1,.09.09,0,0,1,0-.17Z"/><path class="cls-10" d="M53.14,9.31c3-1.15,12.43-.78,16.65,4.32s8.94,7.31,9.58,15.67a95.13,95.13,0,0,1,0,15.1,16.28,16.28,0,0,1-1.75-7.55c0-4.53-13.11-9-14.61-12.8S53.14,9.31,53.14,9.31Z"/><path class="cls-10" d="M51.41,5C46,3.4,37.09,5.19,30.69,8.35c-7.12,3.52-16.14,9.07-16.85,19.38a101.76,101.76,0,0,0,.4,18.6l1.59.93a29,29,0,0,0,2-10.23c0-5.58,14.6-11.09,16.27-15.78S51.41,5,51.41,5Z"/><path class="cls-11" d="M49,10.39s-10.11.17-11.9,2c0,0,3.91-8.4,6.43-8.92S49,10.39,49,10.39Z"/><path class="cls-12" d="M37.09,12.35s4.22-8.75,7-6.07,2.5,19.55,9.47,22C61,31,77.41,31.65,86.79,25.55s9.37-10.7,9.37-10.7-4.69,4.9-9.37,3.6c0,0,2.34,1,4.68-3.6,0,0-7,3.1-10.55,1.55s-8.2-12-18-14c-8.79-1.8-15-4.26-20.2,0C37.09,7,37.09,12.35,37.09,12.35Z"/><path d="M76,222.12s-6.69-97.28-6.9-101.58c.6,1.15,1.19,5.29,1.78,6.38,0,.49,2.16,7,4.52,13.23l11.53-21.08a57.31,57.31,0,0,0-5.25-13.63c-4.09-7.12-10.39-19.93-34.29-19.93C24.16,85.51,18,98.37,13.9,105.44A57.35,57.35,0,0,0,8.58,119.3l12.71,16a86.63,86.63,0,0,0,2.4-8.42c.28-.52,1.56-7,1.84-7.58-.47,6.87-5.24,102.78-5.24,102.78s-15.2,9.25-11.9,14.18,21.33,3.55,25.94.12,11.05-63.17,11.05-63.17l1-13.86h1c.68,0,1.44,0,2.23,0l2.36,13.83s5.37,59.75,10,63.17,22.64,4.8,25.94-.12S76,222.12,76,222.12Z"/><path class="cls-13" d="M63,87.31,48.12,85.45h-2L31.22,87.31S9.1,201.23,12.1,205c2.83,3.53,31.77,6.11,35,5.44,3.26.67,32.2-1.91,35-5.44C85.16,201.23,63,87.31,63,87.31Z"/><path class="cls-4" d="M75.49,166.07c3.67,1.53,3-3.59,4-3.9.76-.21-.46,5.29,2,7.09,7.3,5.32,15.6.6,13.77-7.91-1.5-6.92-3.3-9.1-3.3-9.1l-2.57-19.39-.77-5.65c-.06-.14-.1-.29-.16-.45a75.89,75.89,0,0,0-1.59-7.69L75.36,140.15c2,5.3,4.12,10.45,5.1,11.7C79.44,151.41,73.54,165.26,75.49,166.07Z"/><path class="cls-4" d="M7.06,126.76l-.16.45-.78,5.65L3.56,152.25s-1.81,2.18-3.3,9.1c-1.84,8.51,6.47,13.23,13.76,7.91,2.47-1.8,1.25-7.3,2-7.09,1.06.31.35,5.43,4,3.9,1.95-.81-4-14.66-5-14.22,1.29-1.63,4.15-9.92,6.22-16.51l-12.71-16A76.06,76.06,0,0,0,7.06,126.76Z"/><path class="cls-14" d="M93.16,147.51,74.3,159.45,63,87.45s8.77,3.34,14.06,9.83C91.16,114.51,93.16,147.51,93.16,147.51Z"/><path class="cls-14" d="M1,147.51,19.9,159.45l11.26-72S22,90.51,17.1,97.28C6.83,111.36,1,147.51,1,147.51Z"/><path class="cls-15" d="M48.16,95.51l-6,114.92s4.12.16,5.49.13,5.49-.2,5.49-.2Z"/><path class="cls-16" d="M61.36,85.32c-1.81.4-7.56-.4-13.23-.41-5.45,0-11.56,1-13.31.6-1,.2-.8,1.54-.5,2,1.78,2.66,12.84,8,13.64,9.65,1.2.35,12.59-7,14.36-9.65C62.63,87.05,62.32,85.51,61.36,85.32Z"/><circle class="cls-17" cx="48.06" cy="96.51" r="2"/></g></g></svg>