<svg xmlns="http://www.w3.org/2000/svg" xmlns:xlink="http://www.w3.org/1999/xlink" viewBox="0 0 233 351.93"><defs><style>.cls-1{fill:none;}.cls-2{fill:#6d5f5e;}.cls-3{clip-path:url(#clip-path);}.cls-4{fill:#817372;}.cls-5{fill:url(#linear-gradient);}.cls-6{fill:#d7e6ed;}.cls-7{fill:#fff;}</style><clipPath id="clip-path"><path class="cls-1" d="M204.09,81.86C189.33,54.24,166.75,15,117.39,15,65.24,15,44.52,54.24,29.76,81.86-3,143.21,11.74,349,11.74,349H222.11S236.88,143.21,204.09,81.86Z"/></clipPath><linearGradient id="linear-gradient" x1="117" y1="351.93" x2="117" y2="7" gradientUnits="userSpaceOnUse"><stop offset="0.14" stop-color="#6d5f5e" stop-opacity="0.8"/><stop offset="0.38" stop-color="#6d5f5e" stop-opacity="0.49"/><stop offset="0.63" stop-color="#6d5f5e" stop-opacity="0.22"/><stop offset="0.84" stop-color="#6d5f5e" stop-opacity="0.06"/><stop offset="1" stop-color="#6d5f5e" stop-opacity="0"/></linearGradient></defs><g id="Layer_2" data-name="Layer 2"><g id="Layer_3" data-name="Layer 3"><path class="cls-2" d="M210.09,69.86C194.24,41,170,0,117,0,61,0,38.76,41,22.91,69.86-12.29,134,3.56,349,3.56,349H229.44S245.29,134,210.09,69.86Z"/><g class="cls-3"><path class="cls-4" d="M203.66,81.86C188.9,54.24,166.33,15,117,15,64.81,15,44.1,54.24,29.34,81.86-3.45,143.21,11.32,349,11.32,349H221.68S236.45,143.21,203.66,81.86Z"/><rect class="cls-5" x="2" y="7" width="230" height="344.93"/></g><circle class="cls-6" cx="196.5" cy="198.5" r="13.5"/><path class="cls-7" d="M204,195c-1,0-1,4-3,7-1.24,1.86-2,3-6,3s-3,3.2.5,3.6,8.34-2.54,9.5-5.79C206,200,206,195,204,195Z"/></g></g></svg>