<svg xmlns="http://www.w3.org/2000/svg" viewBox="0 0 158.98 77.05"><defs><style>.cls-1{fill:#412a1a;}.cls-2{fill:#d7d2b4;}.cls-3{fill:#f4f4f3;}.cls-4{fill:none;stroke:#d7d2b4;stroke-linecap:round;stroke-width:2px;}.cls-4,.cls-6{stroke-miterlimit:10;}.cls-5{fill:#a99711;}.cls-6{fill:#565f1c;stroke:#565f1c;}</style></defs><g id="Layer_2" data-name="Layer 2"><g id="Layer_1-2" data-name="Layer 1"><ellipse class="cls-1" cx="96.49" cy="45.93" rx="62.49" ry="31.12"/><ellipse class="cls-2" cx="94.95" cy="45.93" rx="60.95" ry="31.12"/><path class="cls-3" d="M54.11,32c5.06.05,10.5-3.53,10.33-6.05-.09-1.34-5.91-6.49-11.36-6.84A52,52,0,0,0,42.71,20,17,17,0,0,0,44,18.34C46.69,14.1,54.14,1.45,53.35.56c-1.5-1.68-10.5.62-13.21,4.37a142.45,142.45,0,0,0-7.41,13l0-.11C31.09,12.12,25.09.52,23.64.84c-2.72.61-7.22,9.2-6,14.56a49,49,0,0,0,3.52,9.2,55.31,55.31,0,0,0-10.81-.49C5.29,24.67-.44,31,0,33.46c.24,1.32,12.36,3,17.82,2.73a21.32,21.32,0,0,0,3.39-.46A45.21,45.21,0,0,0,18.1,48.2c-.69,9.51,2.32,12.54,4.8,13,1.32.26,6.45-10.32,8.22-15.49a23.3,23.3,0,0,1,4.25-7.33c1.18,2.82,3.67,8.49,5.89,11.46,3,4,11.38,5.76,13.28,4.1,1-.89-3.68-12.19-6.71-16.74a14.83,14.83,0,0,0-5.38-5C45.61,32.12,50.79,32,54.11,32Z"/><path class="cls-2" d="M40.44,23.66A4.7,4.7,0,0,1,39,30.2a2,2,0,0,1-2.21.42,1.43,1.43,0,0,1-.61-1.91c.19-.85.7-.92,1.07-1.18a2.65,2.65,0,0,0,.78-.68,6.68,6.68,0,0,0,.53-2.77,1,1,0,0,1,1.88-.42Z"/><path class="cls-2" d="M35.34,27.92c-.54-1.36-.22-2.67-.21-4L35.19,22a7.92,7.92,0,0,0-.1-1.7c-.64-2.6-1.27-5.22-2.11-7.77a1,1,0,0,1,1.9-.64c.76,3.34,2.72,6.63,3,10,0,2.09.39,4.19-.57,6.17a1.1,1.1,0,0,1-2-.16Z"/><path class="cls-2" d="M34.23,34.08c-.23,1.34-1.37,1.68-2.29,2.39a9.62,9.62,0,0,1-6.56,1.79c-1-.08-2-.14-3.07-.27a1,1,0,0,1,0-2c1.79-.3,4-.07,5.62-.72a15.22,15.22,0,0,0,3.51-2.14c.85-.9,3-.65,2.79.95Z"/><path class="cls-2" d="M31,33.51l-16-5.74a1,1,0,0,1,.61-1.9L32,30.6A1.53,1.53,0,1,1,31,33.51Z"/><path class="cls-2" d="M31,28c-1.48-.87-1.65-2.46-2.34-3.85-.73-1.62-1.13-3.51-2.43-4.6-.56-.48-2-1.81-2.55-2.33-1.12-1-2.24-2-3.42-3a1,1,0,0,1,1.28-1.55,62,62,0,0,0,6.4,5.72,27.29,27.29,0,0,1,3.29,4.47c.73,1.4,1.88,2.58,1.59,4.33A1.24,1.24,0,0,1,31,28Z"/><path class="cls-2" d="M24.94,22.05l4.41,2.83a1.41,1.41,0,1,1-1.69,2.24l-3.93-3.48a1,1,0,0,1,1.21-1.59Z"/><line class="cls-4" x1="35.56" y1="35.17" x2="36.24" y2="32.96"/><path class="cls-5" d="M32.89,34.42c1.32.51,4.18-.46,5.16-2.35a5.59,5.59,0,0,0,0-4.23s-2.13-1.43-3-2.19-3.81-2.34-4.5-2.24A4.62,4.62,0,0,0,27.9,26c-.26,1.07.44,3.86,1.32,4.61S31.65,34,32.89,34.42Z"/><path class="cls-6" d="M36.56,36.17a14.59,14.59,0,0,0-1.74-2.31c-.51-.37-1.45-.21-.89.56s2.63,3.39,2.63,2.57Z"/><path class="cls-6" d="M38.48,24s1.8.73,2.09-1.14-.26-3.37-.8-2.9S38.48,24,38.48,24Z"/><path class="cls-6" d="M34.35,14s1.17-4.23-.24-4.63S32.32,13,33,14A.73.73,0,0,0,34.35,14Z"/><path class="cls-6" d="M21.93,12.43s.07-1.38-.6-1.2-2.74.5-3.31,1,1,1.27,2,1.27A3.46,3.46,0,0,0,21.93,12.43Z"/><path class="cls-6" d="M14.42,26.82s2.46-1,.95-1.77-3.7-.75-3.32,0S14.42,26.82,14.42,26.82Z"/><path class="cls-6" d="M21.33,39.55s1.3-1.83.61-3.38-1.55.82-1.55.82-.76,2.09,0,2.56S21.33,39.55,21.33,39.55Z"/><path class="cls-1" d="M90.25,40.91a.85.85,0,0,1-.69.22L86.89,41a1,1,0,0,1-.67-.26A.85.85,0,0,1,86,40L86.26,33l-4.83-.73,1.18,7.93a.85.85,0,0,1-.72,1.05l-4.73,1a.73.73,0,0,1-.25,0,.85.85,0,0,1-.85-.65L75.14,39a1.05,1.05,0,0,1-.08-.4c0-.4.25-.62.75-.67l2.58-.25-1.21-8.48a.92.92,0,0,1,.17-.71.79.79,0,0,1,.68-.21L88.61,29a.86.86,0,0,1,.9.87l.92,10.38A.81.81,0,0,1,90.25,40.91Z"/><path class="cls-1" d="M97.17,41.16a.81.81,0,0,1-.66.22l-1.6-.05a.87.87,0,0,1-.93-.87L93,29.08a.86.86,0,0,1,.2-.67.91.91,0,0,1,.65-.28l2.52-.1a.93.93,0,0,1,.68.21.87.87,0,0,1,.25.67l.15,11.57A.94.94,0,0,1,97.17,41.16Z"/><path class="cls-1" d="M104.07,41.16a.81.81,0,0,1-.66.22l-1.6-.05a.87.87,0,0,1-.93-.87l-1-11.38a.86.86,0,0,1,.2-.67.91.91,0,0,1,.65-.28l2.52-.1a.93.93,0,0,1,.68.21.87.87,0,0,1,.25.67l.15,11.57A.94.94,0,0,1,104.07,41.16Z"/><path class="cls-1" d="M119.86,30.51a.89.89,0,0,1-.3.62l-4,3.95,2.2,1.7a1.09,1.09,0,0,1,.45.88,1.15,1.15,0,0,1,0,.3l-.5,2.4a1,1,0,0,1-1,.82l-8.62.88a.84.84,0,0,1-1-.78l-.5-2.62a.77.77,0,0,1,0-.25.69.69,0,0,1,.23-.53.92.92,0,0,1,.62-.2l6.33,0-6.43-7a1,1,0,0,1-.27-.6.76.76,0,0,1,.45-.68l1.9-1.12a.89.89,0,0,1,.52-.18.76.76,0,0,1,.7.45l2.7,4.1,2.63-4a.84.84,0,0,1,.7-.45,1,1,0,0,1,.55.17l2.22,1.43A.81.81,0,0,1,119.86,30.51Z"/><path class="cls-1" d="M87.58,59.31a.82.82,0,0,1,.88.92l0,1.68a.92.92,0,0,1-.22.66.9.9,0,0,1-.65.26l-11,.58a.82.82,0,0,1-.68-.23.83.83,0,0,1-.19-.7l.27-2.6a.83.83,0,0,1,1-.82l6.13.12.25-5L77,54.46a.88.88,0,0,1-.68-.2.92.92,0,0,1-.2-.7l.15-2.23a.83.83,0,0,1,.93-.87l8.4,0a.8.8,0,0,1,.9.9l.1,7.9Z"/><path class="cls-1" d="M103.76,52.51a.89.89,0,0,1-.3.62l-4,3.95,2.2,1.7a1.09,1.09,0,0,1,.45.88,1.15,1.15,0,0,1,0,.3l-.5,2.4a1,1,0,0,1-1,.82L92,64.06a.84.84,0,0,1-1-.78l-.5-2.62a.77.77,0,0,1,0-.25.69.69,0,0,1,.23-.53.92.92,0,0,1,.62-.2l6.33,0-6.43-7a1,1,0,0,1-.27-.6.76.76,0,0,1,.45-.68l1.9-1.12a.89.89,0,0,1,.52-.18.76.76,0,0,1,.7.45l2.7,4.1,2.63-4a.84.84,0,0,1,.7-.45,1,1,0,0,1,.55.17l2.22,1.43A.81.81,0,0,1,103.76,52.51Z"/><path class="cls-1" d="M114.91,62.61l-.65-9-3.1.22-.48,8.48a.84.84,0,0,1-.9.9l-2.52.15a.86.86,0,0,1-.69-.23.83.83,0,0,1-.19-.7l1-8.3-.87,0a.88.88,0,0,1-.69-.19.83.83,0,0,1-.24-.66l0-2.17a.91.91,0,0,1,.25-.68.84.84,0,0,1,.67-.22l10.2.4a.87.87,0,0,1,.93.85L119,62.56a.77.77,0,0,1-.85.95l-2.35,0A.83.83,0,0,1,114.91,62.61Z"/></g></g></svg>