<svg xmlns="http://www.w3.org/2000/svg" viewBox="0 0 158.98 77.05"><defs><style>.cls-1,.cls-7{fill:#412a1a;}.cls-2{fill:#d7d2b4;}.cls-3{fill:#f4f4f3;}.cls-4{fill:none;stroke-linecap:round;stroke-width:2px;}.cls-4,.cls-7{stroke:#d7d2b4;}.cls-4,.cls-6,.cls-7{stroke-miterlimit:10;}.cls-5{fill:#a99711;}.cls-6{fill:#565f1c;stroke:#565f1c;}.cls-7{stroke-width:0.25px;}</style></defs><g id="Layer_2" data-name="Layer 2"><g id="Layer_1-2" data-name="Layer 1"><ellipse class="cls-1" cx="62.49" cy="45.93" rx="62.49" ry="31.12"/><ellipse class="cls-2" cx="64.03" cy="45.93" rx="60.95" ry="31.12"/><path class="cls-3" d="M104.86,32c-5,.05-10.49-3.53-10.33-6.05.09-1.34,5.92-6.49,11.37-6.84a51.79,51.79,0,0,1,10.36.88A17,17,0,0,1,115,18.34c-2.74-4.24-10.19-16.89-9.4-17.78,1.49-1.68,10.49.62,13.21,4.37,2.12,2.93,5.86,10,7.41,13l0-.11c1.6-5.69,7.61-17.29,9.06-17,2.72.61,7.22,9.2,6,14.56a49.67,49.67,0,0,1-3.51,9.2,55.25,55.25,0,0,1,10.8-.49c5,.56,10.75,6.86,10.29,9.35-.25,1.32-12.36,3-17.82,2.73a21.44,21.44,0,0,1-3.4-.46,45.5,45.5,0,0,1,3.15,12.47c.69,9.51-2.33,12.54-4.8,13-1.32.26-6.45-10.32-8.23-15.49a23.11,23.11,0,0,0-4.25-7.33c-1.17,2.82-3.66,8.49-5.88,11.46-3,4-11.38,5.76-13.28,4.1-1-.89,3.68-12.19,6.71-16.74a14.83,14.83,0,0,1,5.38-5C113.37,32.12,108.19,32,104.86,32Z"/><path class="cls-2" d="M120.43,24.3c.12,1.28,0,2.55,1.29,3.23.38.26.89.33,1.08,1.18a1.44,1.44,0,0,1-.61,1.91A2,2,0,0,1,120,30.2a4.51,4.51,0,0,1-2.14-4.42c.16-1,.63-3.15,2.08-2.49a1.09,1.09,0,0,1,.52,1Z"/><path class="cls-2" d="M121.65,28.08c-1-2-.59-4.08-.57-6.17.29-3.38,2.25-6.65,3-10a1,1,0,0,1,1.23-.7,1,1,0,0,1,.68,1.29c-.85,2.55-1.47,5.17-2.11,7.77a20.94,20.94,0,0,0,0,3.64c0,1.31.32,2.62-.21,4a1.1,1.1,0,0,1-2,.16Z"/><path class="cls-2" d="M126.11,32.62c1.19-.06,1.67.86,2.57,1.35a13.2,13.2,0,0,0,2.37,1.3c1.58.65,3.83.42,5.61.72a1,1,0,0,1,0,2c-2.15.16-4.47.66-6.56,0a15.32,15.32,0,0,1-4.41-2.45,2,2,0,0,1-.94-1.44,1.29,1.29,0,0,1,1.36-1.46Z"/><path class="cls-2" d="M127,30.6l16.3-4.73a1,1,0,0,1,.62,1.9l-16,5.74A1.53,1.53,0,1,1,127,30.6Z"/><path class="cls-2" d="M126.17,27.2a3.22,3.22,0,0,1,.47-2.32A37.28,37.28,0,0,1,130.5,19a5.61,5.61,0,0,1,1-.91c.85-.68,1.77-1.44,2.58-2.16,1.12-1,2.24-2,3.28-3.13a1,1,0,1,1,1.36,1.47c-1.69,1.4-3.48,3.06-5.09,4.57l-.87.77a2.63,2.63,0,0,0-.64.65c-1.09,1.72-1.74,4.09-2.68,6A3.18,3.18,0,0,1,128,28a1.25,1.25,0,0,1-1.83-.82Z"/><path class="cls-2" d="M135.25,23.64l-3.93,3.48a1.41,1.41,0,1,1-1.69-2.24L134,22.05a1,1,0,0,1,1.21,1.59Z"/><line class="cls-4" x1="123.42" y1="35.17" x2="122.73" y2="32.96"/><path class="cls-5" d="M126.09,34.42c-1.33.51-4.18-.46-5.16-2.35a5.59,5.59,0,0,1,0-4.23s2.13-1.43,3-2.19,3.81-2.34,4.5-2.24a4.58,4.58,0,0,1,2.6,2.55c.27,1.07-.43,3.86-1.32,4.61S127.33,34,126.09,34.42Z"/><path class="cls-6" d="M122.42,36.17a15,15,0,0,1,1.73-2.31c.51-.37,1.46-.21.89.56s-2.62,3.39-2.62,2.57Z"/><path class="cls-6" d="M120.49,24s-1.8.73-2.08-1.14.26-3.37.79-2.9S120.49,24,120.49,24Z"/><path class="cls-6" d="M124.63,14s-1.17-4.23.23-4.63S126.65,13,126,14A.73.73,0,0,1,124.63,14Z"/><path class="cls-6" d="M137,12.43s-.06-1.38.6-1.2,2.75.5,3.32,1-1,1.27-2,1.27A3.46,3.46,0,0,1,137,12.43Z"/><path class="cls-6" d="M144.56,26.82s-2.47-1-.95-1.77,3.7-.75,3.32,0S144.56,26.82,144.56,26.82Z"/><path class="cls-6" d="M137.64,39.55s-1.3-1.83-.6-3.38,1.55.82,1.55.82.76,2.09,0,2.56S137.64,39.55,137.64,39.55Z"/><path class="cls-1" d="M18.74,36.91l-1,0a.46.46,0,0,1-.35-.13.48.48,0,0,1-.12-.35V35.32A.45.45,0,0,1,17.4,35a.51.51,0,0,1,.35-.14l1.16,0a.44.44,0,0,1,.35.12.41.41,0,0,1,.1.37l-.13,1.18A.44.44,0,0,1,18.74,36.91Zm0,4.16-1,0a.46.46,0,0,1-.35-.13.48.48,0,0,1-.12-.35V39.48a.45.45,0,0,1,.12-.34.51.51,0,0,1,.35-.14l1.16,0a.44.44,0,0,1,.35.12.4.4,0,0,1,.1.36l-.13,1.19A.44.44,0,0,1,18.74,41.07Z"/><path class="cls-1" d="M26.41,41.21H25.05a.42.42,0,0,1-.45-.48l.12-4.55L21,36.26a.43.43,0,0,1-.35-.11.53.53,0,0,1-.11-.37l.07-1c0-.31.19-.46.49-.44l5.06.21a.44.44,0,0,1,.47.45l.27,5.76C26.88,41.05,26.73,41.21,26.41,41.21ZM20.78,41a.36.36,0,0,1-.12-.29v-.11l.38-2.51a.44.44,0,0,1,.17-.33.47.47,0,0,1,.35-.09l.88.08a.42.42,0,0,1,.43.49l-.13,2.31a.42.42,0,0,1-.46.46l-1.17.08A.47.47,0,0,1,20.78,41Z"/><path class="cls-1" d="M34.57,35.09l.12.87a.87.87,0,0,1,0,.18,1,1,0,0,1-.08.4l-1.48,4c-.08.2-.2.31-.38.31a.68.68,0,0,1-.23,0l-.85-.37a.44.44,0,0,1-.29-.4.59.59,0,0,1,0-.21l1.28-3.3-4.24-.26c-.27,0-.41-.15-.41-.4a.41.41,0,0,1,0-.12l.17-1a.45.45,0,0,1,.52-.4l5.32.29A.47.47,0,0,1,34.57,35.09Zm-5.74,2.64a.45.45,0,0,1,.36-.11h.51a.5.5,0,0,1,.5.43l.94,5a.53.53,0,0,1,0,.13c0,.24-.13.37-.39.41l-1.32.19-.12,0c-.24,0-.37-.15-.39-.43l-.21-5.32A.46.46,0,0,1,28.83,37.73Z"/><path class="cls-1" d="M37.81,38a.51.51,0,0,1-.35.11l-1,0a.44.44,0,0,1-.47-.46l-.2-2.75a.44.44,0,0,1,.12-.35.47.47,0,0,1,.34-.15l1.21-.05a.39.39,0,0,1,.34.12.46.46,0,0,1,.13.35l0,2.86A.47.47,0,0,1,37.81,38Z"/><path class="cls-1" d="M40.19,34l5.48.64a.43.43,0,0,1,.42.52l-.51,5.06a.5.5,0,0,1-.44.49l-5.12,1h-.13a.4.4,0,0,1-.42-.36l-.27-1.1a.56.56,0,0,1,0-.15.35.35,0,0,1,.11-.26.46.46,0,0,1,.3-.12L44,39.18l.11-2.6-2.76-.67L41,37.05l1.21,0a.44.44,0,0,1,.35.14.41.41,0,0,1,.09.35l-.06.73a.47.47,0,0,1-.16.33.43.43,0,0,1-.35.08l-2.52-.31a.4.4,0,0,1-.4-.52l.52-3.47A.4.4,0,0,1,40.19,34Z"/><path class="cls-1" d="M47.7,34.19l4.23.35a.49.49,0,0,1,.33.16.46.46,0,0,1,.12.33l-.06,5.75a.48.48,0,0,1-.13.35.44.44,0,0,1-.36.12l-1.26,0a.49.49,0,0,1-.31-.12.36.36,0,0,1-.12-.29.27.27,0,0,1,0-.11l.69-4.14-3.29-.24a.42.42,0,0,1-.43-.51l.08-1.17A.4.4,0,0,1,47.7,34.19Z"/><path class="cls-1" d="M58.66,40.74a.38.38,0,0,1-.1.26.46.46,0,0,1-.3.12l-1.11.12a.46.46,0,0,1-.53-.39l-.34-1.47-1,1.78a.39.39,0,0,1-.35.24.45.45,0,0,1-.3-.14l-.87-.8a.48.48,0,0,1-.17-.34.44.44,0,0,1,.14-.31l2.23-2.37L55.63,36l-1.16.13a.49.49,0,0,1-.37-.1.42.42,0,0,1-.12-.36l0-1.05a.46.46,0,0,1,.14-.34.46.46,0,0,1,.35-.1l2.17.18a.52.52,0,0,1,.51.43l1.44,5.74A1.19,1.19,0,0,1,58.66,40.74Z"/><path class="cls-1" d="M62.15,41a.47.47,0,0,1-.34.12l-.84,0a.46.46,0,0,1-.48-.46L60,34.75a.43.43,0,0,1,.44-.5l1.31,0a.47.47,0,0,1,.36.11.5.5,0,0,1,.13.35l.07,6A.51.51,0,0,1,62.15,41Z"/><path class="cls-1" d="M75.79,40.9a.46.46,0,0,1-.36.11L74,40.94a.56.56,0,0,1-.35-.14.45.45,0,0,1-.11-.36l.13-3.68-2.51-.37.62,4.12a.44.44,0,0,1-.38.54L69,41.56h-.13a.44.44,0,0,1-.44-.33l-.48-1.32a.56.56,0,0,1,0-.21c0-.2.13-.32.39-.35l1.34-.13L69,34.83a.5.5,0,0,1,.09-.37.4.4,0,0,1,.36-.11l5.5.33a.45.45,0,0,1,.46.46l.48,5.39A.44.44,0,0,1,75.79,40.9Z"/><path class="cls-1" d="M79.39,41a.48.48,0,0,1-.35.12l-.83,0a.46.46,0,0,1-.48-.46l-.53-5.91a.43.43,0,0,1,.1-.35.47.47,0,0,1,.34-.15l1.31,0a.44.44,0,0,1,.35.11.46.46,0,0,1,.13.35l.08,6A.51.51,0,0,1,79.39,41Z"/><path class="cls-1" d="M84.43,35.27,84.71,40a.49.49,0,0,1-.36.54l-2.8.9a.47.47,0,0,1-.19,0,.4.4,0,0,1-.41-.33l-.31-.89a.79.79,0,0,1,0-.2c0-.19.12-.32.37-.39l1.65-.39-.24-2.94-.85-.1c-.27,0-.41-.18-.41-.4a.39.39,0,0,1,0-.13l.23-1.12c0-.25.18-.38.39-.38l.17,0,2.08.58A.52.52,0,0,1,84.43,35.27Z"/><path class="cls-1" d="M86.05,34.25a.43.43,0,0,1,.36-.1l5.15.56a.43.43,0,0,1,.44.49v5a.46.46,0,0,1-.43.5l-5,.76-.12,0c-.24,0-.37-.15-.39-.43L86,39.83a.43.43,0,0,1,.43-.49l3.7-.31L90,36.35l-3.6.14a.45.45,0,0,1-.35-.11A.44.44,0,0,1,86,36l0-1.43A.42.42,0,0,1,86.05,34.25Z"/><path class="cls-1" d="M101,40.9a.46.46,0,0,1-.36.11l-1.39-.07a.56.56,0,0,1-.35-.14.45.45,0,0,1-.11-.36l.13-3.68-2.51-.37L97,40.51a.44.44,0,0,1-.38.54l-2.46.51h-.13a.44.44,0,0,1-.44-.33l-.48-1.32a.56.56,0,0,1,0-.21c0-.2.13-.32.39-.35l1.34-.13-.63-4.4a.46.46,0,0,1,.09-.37.4.4,0,0,1,.36-.11l5.5.33a.45.45,0,0,1,.46.46l.48,5.39A.44.44,0,0,1,101,40.9Z"/><path class="cls-7" d="M41.37,52.37a.34.34,0,0,1,.35.37v.67a.37.37,0,0,1-.09.27.36.36,0,0,1-.26.1L37,54a.3.3,0,0,1-.27-.09.32.32,0,0,1-.08-.28l.11-1a.33.33,0,0,1,.38-.33l2.45,0,.1-2-2.54.11a.33.33,0,0,1-.27-.08.34.34,0,0,1-.08-.28l.06-.89a.33.33,0,0,1,.37-.35h3.36a.32.32,0,0,1,.36.36l0,3.16Z"/><path class="cls-7" d="M43.87,53.91a.32.32,0,0,1-.27.09L43,54a.35.35,0,0,1-.37-.35l-.41-4.55a.35.35,0,0,1,.08-.27.42.42,0,0,1,.26-.11l1,0a.4.4,0,0,1,.27.09.33.33,0,0,1,.1.26L44,53.64A.37.37,0,0,1,43.87,53.91Z"/><path class="cls-7" d="M48.47,48.73h.11l1,.16a.36.36,0,0,1,.32.39l-.09,4.45a.36.36,0,0,1-.09.26.37.37,0,0,1-.27.11l-4.59.24a.35.35,0,0,1-.27-.08.33.33,0,0,1-.1-.27l0-4.58a.35.35,0,0,1,.34-.38l1-.13a.37.37,0,0,1,.29.07.35.35,0,0,1,.08.28L46,53.07l2.4-.41,0-2-.86.92a.38.38,0,0,1-.28.14.4.4,0,0,1-.23-.08l-.32-.23a.34.34,0,0,1-.17-.27.4.4,0,0,1,.09-.23l1.47-2A.43.43,0,0,1,48.47,48.73Z"/><path class="cls-7" d="M50.8,48.65l3.25.27a.49.49,0,0,1,.26.12.39.39,0,0,1,.09.26l0,4.42a.33.33,0,0,1-.1.27.32.32,0,0,1-.27.09l-1,0a.3.3,0,0,1-.24-.09.27.27,0,0,1-.09-.22.22.22,0,0,1,0-.09l.53-3.18-2.53-.19a.32.32,0,0,1-.33-.39l.06-.9A.32.32,0,0,1,50.8,48.65Z"/><path class="cls-7" d="M59.68,52.37a.34.34,0,0,1,.35.37v.67a.37.37,0,0,1-.09.27.36.36,0,0,1-.26.1L55.28,54a.3.3,0,0,1-.27-.09.32.32,0,0,1-.08-.28l.11-1a.33.33,0,0,1,.38-.33l2.45,0,.1-2-2.54.11a.33.33,0,0,1-.27-.08.34.34,0,0,1-.08-.28l.06-.89a.33.33,0,0,1,.37-.35h3.36a.32.32,0,0,1,.36.36l0,3.16Z"/><path class="cls-7" d="M68.74,49.7a.33.33,0,0,1-.1.25l-1.38,1.61,1.26,1.35a.42.42,0,0,1,.11.24.33.33,0,0,1-.16.27l-.74.55a.4.4,0,0,1-.23.09.33.33,0,0,1-.27-.16l-1.44-2-.63,1.94a.56.56,0,0,1-.11.19.3.3,0,0,1-.18.06.54.54,0,0,1-.17,0l-.94-.37c-.15-.06-.23-.15-.23-.28a.41.41,0,0,1,.06-.2L64.85,51l-1.17-1.28a.37.37,0,0,1-.11-.24.34.34,0,0,1,.17-.27l.78-.55a.4.4,0,0,1,.23-.09.34.34,0,0,1,.27.17l1.39,1.85,1-1.61a.33.33,0,0,1,.27-.18.37.37,0,0,1,.23.1l.67.55A.34.34,0,0,1,68.74,49.7Z"/><path class="cls-7" d="M72.05,52.37a.35.35,0,0,1,.27-.07l1,.1-.55-1.88-2.41,3.26a.33.33,0,0,1-.27.16.4.4,0,0,1-.23-.08l-.48-.33a.35.35,0,0,1-.17-.28.49.49,0,0,1,.08-.22l1.35-1.9L69.29,50a.3.3,0,0,1,0-.51l.83-.65a.45.45,0,0,1,.23-.1.34.34,0,0,1,.27.17L71.48,50l.86-1.21a.35.35,0,0,1,.29-.18.41.41,0,0,1,.2.06l1,.51a.56.56,0,0,1,.3.38l1,3.94c0,.06,0,.1,0,.12a.26.26,0,0,1-.09.21.33.33,0,0,1-.24.07h-2.5a.36.36,0,0,1-.27-.1.3.3,0,0,1-.09-.27l0-.88A.34.34,0,0,1,72.05,52.37Z"/><path class="cls-7" d="M80.2,49.22a.42.42,0,0,1,.25.12.35.35,0,0,1,.07.27l-.1.77a1.06,1.06,0,0,1-.15.43L78.42,54a.31.31,0,0,1-.28.19.29.29,0,0,1-.22-.08L77,53.48a.35.35,0,0,1-.17-.28.49.49,0,0,1,.08-.22l1.8-2.58H75.79a.32.32,0,0,1-.36-.36l0-2.41a.37.37,0,0,1,.09-.27.41.41,0,0,1,.28-.08l1,.09a.37.37,0,0,1,.23.09.32.32,0,0,1,.08.21.74.74,0,0,1,0,.12l-.28,1.12Z"/><path class="cls-7" d="M84.49,48.69l1,0a.34.34,0,0,1,.35.37l-.06,4.35a.33.33,0,0,1-.34.37l-4,.32a.32.32,0,0,1-.39-.33l-.09-1a.36.36,0,0,1,.07-.28.37.37,0,0,1,.27-.1h1.07L81.19,49.3a.4.4,0,0,1,0-.15c0-.15.09-.25.27-.31l.85-.22.13,0a.31.31,0,0,1,.31.27l1,3.53h.58l-.17-3.35Q84.12,48.68,84.49,48.69Z"/><path class="cls-7" d="M37.78,63.59a.35.35,0,0,1-.27.08l-.73,0a.33.33,0,0,1-.36-.35l-.15-2.12a.35.35,0,0,1,.08-.27.42.42,0,0,1,.27-.11l.93,0a.36.36,0,0,1,.26.09.41.41,0,0,1,.1.27l0,2.2A.37.37,0,0,1,37.78,63.59Z"/><path class="cls-7" d="M41.94,60.69l1,0a.34.34,0,0,1,.35.37l-.06,4.35a.33.33,0,0,1-.34.37l-4,.32a.31.31,0,0,1-.38-.33l-.09-1a.32.32,0,0,1,.07-.28.35.35,0,0,1,.27-.1h1.07L38.64,61.3a.4.4,0,0,1,0-.15c0-.15.09-.25.27-.31l.84-.22.14,0a.32.32,0,0,1,.31.27l1,3.53h.57l-.17-3.35C41.56,60.8,41.68,60.68,41.94,60.69Z"/><path class="cls-7" d="M48.47,61.22a.45.45,0,0,1,.25.12.31.31,0,0,1,.06.27l-.1.77a1.06,1.06,0,0,1-.15.43L46.68,66a.28.28,0,0,1-.27.19.31.31,0,0,1-.23-.08l-.89-.63a.35.35,0,0,1-.17-.28A.49.49,0,0,1,45.2,65L47,62.4h-3c-.24,0-.35-.12-.35-.36l0-2.41a.37.37,0,0,1,.1-.27.36.36,0,0,1,.27-.08l1,.09a.37.37,0,0,1,.23.09.28.28,0,0,1,.08.21.3.3,0,0,1,0,.12l-.28,1.12Z"/><path class="cls-7" d="M54.22,61.34l.09.67a.57.57,0,0,1,0,.14.89.89,0,0,1-.06.31l-1.14,3.08c-.06.16-.15.24-.29.24a.38.38,0,0,1-.17,0L52,65.46a.32.32,0,0,1-.23-.31.5.5,0,0,1,0-.16l1-2.54-3.26-.2c-.21,0-.31-.11-.31-.31v-.09l.13-.76a.35.35,0,0,1,.41-.31l4.08.22A.37.37,0,0,1,54.22,61.34Zm-4.41,2a.38.38,0,0,1,.27-.09h.39a.4.4,0,0,1,.4.33l.71,3.87a.31.31,0,0,1,0,.1.29.29,0,0,1-.3.31l-1,.15h-.1c-.18,0-.28-.11-.29-.33l-.17-4.09A.37.37,0,0,1,49.81,63.38Z"/><path class="cls-7" d="M59.48,61.22a.45.45,0,0,1,.25.12.35.35,0,0,1,.07.27l-.1.77a1.48,1.48,0,0,1-.15.43L57.7,66a.31.31,0,0,1-.28.19.29.29,0,0,1-.22-.08l-.9-.63a.33.33,0,0,1-.16-.28.4.4,0,0,1,.08-.22L58,62.4h-3a.31.31,0,0,1-.36-.36l0-2.41a.37.37,0,0,1,.09-.27.39.39,0,0,1,.28-.08l1,.09a.35.35,0,0,1,.23.09.29.29,0,0,1,.09.21.74.74,0,0,1,0,.12l-.28,1.12Z"/><path class="cls-7" d="M65.5,61.7a.33.33,0,0,1-.1.25L64,63.56l1.26,1.35a.37.37,0,0,1,.11.24.33.33,0,0,1-.16.27l-.74.55a.37.37,0,0,1-.23.09A.33.33,0,0,1,64,65.9l-1.44-2-.63,1.94a.36.36,0,0,1-.11.19.28.28,0,0,1-.18.06.54.54,0,0,1-.17,0l-.94-.37c-.15-.06-.23-.15-.23-.28a.41.41,0,0,1,.06-.2L61.61,63l-1.17-1.28a.37.37,0,0,1-.11-.24.34.34,0,0,1,.17-.27l.78-.55a.4.4,0,0,1,.23-.09.34.34,0,0,1,.27.17l1.39,1.85,1-1.61a.33.33,0,0,1,.27-.18.37.37,0,0,1,.23.1l.67.55A.31.31,0,0,1,65.5,61.7Z"/><path class="cls-7" d="M69.4,60.65l3.25.27a.45.45,0,0,1,.26.12.39.39,0,0,1,.09.26l0,4.42a.33.33,0,0,1-.1.27.3.3,0,0,1-.27.09l-1,0a.32.32,0,0,1-.24-.09.27.27,0,0,1-.09-.22s0-.07,0-.09l.53-3.18-2.53-.19a.32.32,0,0,1-.33-.39L69,61A.32.32,0,0,1,69.4,60.65Z"/><path class="cls-7" d="M77.27,65.69,77,62.09l-1.24.09-.19,3.39a.33.33,0,0,1-.36.36l-1,.06a.3.3,0,0,1-.27-.09.35.35,0,0,1-.08-.28l.38-3.32-.35,0a.33.33,0,0,1-.27-.07.37.37,0,0,1-.1-.27v-.87a.41.41,0,0,1,.1-.27.4.4,0,0,1,.27-.09l4.08.16a.34.34,0,0,1,.37.34l.56,4.42a.33.33,0,0,1-.07.29.37.37,0,0,1-.27.09h-.94C77.41,66,77.29,65.93,77.27,65.69Z"/><path class="cls-7" d="M85.07,60.62h.11l.81.17a.3.3,0,0,1,.28.31.4.4,0,0,1,0,.13l-1.17,4.27a.38.38,0,0,1-.39.32l-4,.32a.33.33,0,0,1-.4-.3l-.89-4.59s0,0,0-.09a.33.33,0,0,1,.08-.22.41.41,0,0,1,.23-.11l1.07-.13a.39.39,0,0,1,.27.06.33.33,0,0,1,.14.24l.33,1.88.94-2.14a.35.35,0,0,1,.32-.24l.14,0,.75.21a.35.35,0,0,1,.2.11.28.28,0,0,1,.06.18.49.49,0,0,1,0,.17l-1,2.29a.33.33,0,0,1-.33.24l-.13,0-.86-.24.16.94L84,64.34l.73-3.44A.31.31,0,0,1,85.07,60.62Z"/></g></g></svg>