<svg xmlns="http://www.w3.org/2000/svg" xmlns:xlink="http://www.w3.org/1999/xlink" viewBox="0 0 95.53 235.18"><defs><style>.cls-1{fill:#2565a2;}.cls-2{fill:#ffb69d;}.cls-3{fill:#333;}.cls-4{fill:#ffd4b8;}.cls-5{fill:#222224;}.cls-6{fill:#4d4d4d;}.cls-7{fill:#0071bc;}.cls-8{fill:#d49529;}.cls-9{fill:#6b442c;}.cls-10{fill:#4d3013;opacity:0.63;}.cls-11{fill:#ffbe9e;}.cls-12{fill:#ff8dcf;opacity:0.22;}.cls-13{fill:#fff;}.cls-14{fill:url(#linear-gradient);}.cls-15{fill:url(#linear-gradient-2);}.cls-16{fill:#ffb49b;}</style><linearGradient id="linear-gradient" x1="34.09" y1="45.61" x2="34.09" y2="34.87" gradientUnits="userSpaceOnUse"><stop offset="0.02" stop-color="#365703"/><stop offset="0.03" stop-color="#375903"/><stop offset="0.31" stop-color="#42740b"/><stop offset="0.48" stop-color="#6d8609"/><stop offset="0.65" stop-color="#8f9507"/><stop offset="0.78" stop-color="#a49e05"/><stop offset="0.87" stop-color="#aba105"/></linearGradient><linearGradient id="linear-gradient-2" x1="-328.71" y1="45.61" x2="-328.71" y2="34.87" gradientTransform="matrix(-1, 0, 0, 1, -268.66, 0)" xlink:href="#linear-gradient"/></defs><g id="Layer_2" data-name="Layer 2"><g id="Layer_4" data-name="Layer 4"><ellipse class="cls-1" cx="48.16" cy="82.18" rx="14" ry="4"/><rect class="cls-2" x="40.89" y="72.97" width="13.82" height="13.22"/><path d="M76,217.79s-6.69-97.28-6.9-101.59c.6,1.16,1.19,5.29,1.78,6.39,0,.48,2.16,7,4.52,13.22l11.53-21.07a57.31,57.31,0,0,0-5.25-13.63C77.55,94,71.25,81.18,47.35,81.18,24.16,81.18,18,94,13.9,101.11A57.19,57.19,0,0,0,8.58,115l12.71,16a86.63,86.63,0,0,0,2.4-8.42c.28-.52,1.56-7,1.84-7.59-.47,6.88-5.24,102.79-5.24,102.79S5.09,227,8.39,232s21.33,3.56,25.94.13,11.05-63.17,11.05-63.17l1-13.87h1c.68,0,1.44,0,2.23,0l2.36,13.83s5.37,59.74,10,63.17,22.64,4.8,25.94-.13S76,217.79,76,217.79Z"/><path class="cls-3" d="M63,83,48.12,81.11h-2L31.22,83S9.1,196.9,12.1,200.63c2.83,3.52,31.77,6.11,35,5.44,3.26.67,32.2-1.92,35-5.44C85.16,196.9,63,83,63,83Z"/><path class="cls-4" d="M75.49,161.74c3.67,1.53,3-3.6,4-3.9.76-.22-.46,5.29,2,7.09,7.3,5.32,15.6.6,13.77-7.91-1.5-6.92-3.3-9.1-3.3-9.1l-2.57-19.39-.77-5.65c-.06-.14-.1-.29-.16-.45a75.89,75.89,0,0,0-1.59-7.69L75.36,135.81c2,5.3,4.12,10.45,5.1,11.7C79.44,147.08,73.54,160.93,75.49,161.74Z"/><path class="cls-4" d="M7.06,122.43l-.16.45-.78,5.65L3.56,147.92S1.75,150.1.26,157c-1.84,8.51,6.47,13.23,13.76,7.91,2.47-1.8,1.25-7.31,2-7.09,1.06.3.35,5.43,4,3.9,1.95-.81-4-14.66-5-14.23,1.29-1.63,4.15-9.92,6.22-16.5L8.58,115A76.06,76.06,0,0,0,7.06,122.43Z"/><path class="cls-5" d="M93.16,143.18,74.3,155.12,63,83.11S71.81,86.45,77.1,93C91.16,110.18,93.16,143.18,93.16,143.18Z"/><path class="cls-5" d="M1,143.18,19.9,155.12l11.26-72S22,86.18,17.1,93C6.83,107,1,143.18,1,143.18Z"/><path class="cls-6" d="M48.16,91.18l-6,114.88s4.12.21,5.49.2,5.49-.26,5.49-.26Z"/><path class="cls-7" d="M61.36,81c-1.81.4-7.56-.4-13.23-.41-5.45,0-11.56,1-13.31.61-1,.19-.8,1.54-.5,2,1.78,2.66,12.84,8,13.64,9.64,1.2.36,12.59-7,14.36-9.64A1.74,1.74,0,0,0,61.36,81Z"/><circle class="cls-8" cx="48.06" cy="92.18" r="2"/><path class="cls-9" d="M69.3,91.46c-2.34,2.89-6.74,3.93-6.74,3.93s-5.62-5.44-5.09-8,3.26-6.74,7.53-5.07S73.19,86.65,69.3,91.46Z"/><path class="cls-9" d="M66,96.64a10,10,0,0,1-4.34,3s-4.25-4.12-3.85-6.07,2.47-6.61,5.69-5.34S69,93,66,96.64Z"/><path class="cls-9" d="M63.24,105.71c-1.77,2.18-.34,5-.34,5s-6.25-6.12-5.85-8.07,2.47-5.61,5.69-4.35S66.18,102.07,63.24,105.71Z"/><path class="cls-9" d="M74.05,84.79c-2.58,3.52-8.82,6-8.82,6S55.37,80.88,56.41,78c1.18-3.23,11.12-7.76,16.18-5.23C74.59,73.81,76,82.09,74.05,84.79Z"/><path class="cls-9" d="M79.73,62.8a23.55,23.55,0,0,1-10.14,7.06s-11.68-8.66-11.16-13S68.1,31.93,76.49,34.38,86.19,54.41,79.73,62.8Z"/><path class="cls-9" d="M75.36,75.53c-3.06,4-10.22,4.69-10.22,4.69s-5.87-9.3-5-12.82,7.18-13.09,12-10.86S80.44,69,75.36,75.53Z"/><path class="cls-10" d="M72.06,77.57s-7.88,2.56-7.92,1.65-4-7.15-4-7.15,4.33,5,5.12,5.62S72.06,77.57,72.06,77.57Z"/><path class="cls-9" d="M81,23s3.7,10.35,2.65,14.61-5,8.95-5,8.95Z"/><circle class="cls-11" cx="15.6" cy="43.82" r="8.95"/><circle class="cls-11" cx="78.26" cy="43.82" r="8.95"/><path class="cls-4" d="M50.51.86c34,0,28.65,46.79,28.65,46.79,3.58,13.86-12.54,31.08-30.44,31.08-19.69,0-37.59-17.22-34-31.08C14.71,47.65,5.76.86,50.51.86Z"/><ellipse class="cls-12" cx="67.97" cy="49.19" rx="5.82" ry="2.69"/><ellipse class="cls-12" cx="26.85" cy="49.19" rx="5.82" ry="2.69"/><path class="cls-13" d="M23.4,39.84c0,4.67,5.24,8.46,9.39,8.46s7.52-3.79,7.52-8.46S37,29.5,32.79,29.5a7.46,7.46,0,0,0-4.17,1.57C25.79,33.08,23.4,36.69,23.4,39.84Z"/><path d="M23.62,39.84c0,4.61,4.78,8.28,9.2,8.44,4.82,0,8-5.31,7.22-9.73-.57-4.06-3.6-9.65-8.41-8.66a11.85,11.85,0,0,0-8,10Zm-.45,0c.12-6.66,9.37-14.9,14.59-7.77,3.6,4.38,4.06,12.53-1.63,15.34-5.19,2.85-12.71-1.73-13-7.57Z"/><ellipse class="cls-14" cx="34.09" cy="40.24" rx="4.16" ry="5.37"/><ellipse class="cls-13" cx="34.09" cy="40.24" rx="2.08" ry="2.69"/><path class="cls-13" d="M70.75,39.84c0,4.67-5.25,8.46-9.4,8.46s-7.52-3.79-7.52-8.46S57.2,29.5,61.35,29.5,70.75,35.17,70.75,39.84Z"/><path d="M71,39.84C70.72,45.68,63.2,50.26,58,47.41c-5.69-2.81-5.24-11-1.64-15.33C61.59,25,70.85,33.18,71,39.84Zm-.45,0a11.84,11.84,0,0,0-8-9.94c-4.81-1-7.84,4.6-8.41,8.65-.73,4.43,2.4,9.78,7.23,9.73,4.41-.16,9.16-3.83,9.19-8.44Z"/><ellipse class="cls-15" cx="60.05" cy="40.24" rx="4.16" ry="5.37"/><ellipse class="cls-13" cx="60.05" cy="40.24" rx="2.08" ry="2.69"/><path d="M68.44,26.9c-3.45-4.32-7.76-4.24-12.27-1.68a.26.26,0,0,1-.3-.4c3.25-2.8,8.73-2.75,11.64.53.42.43.77.92,1.16,1.38a.14.14,0,0,1,0,.2.15.15,0,0,1-.21,0Z"/><path d="M25.48,26.73a8.75,8.75,0,0,1,5.92-3.87,9.11,9.11,0,0,1,6.87,2,.26.26,0,0,1-.3.4c-4.51-2.57-8.82-2.64-12.27,1.68-.1.16-.35,0-.22-.17Z"/><path class="cls-16" d="M45.3,46.84l-3.88,6.72a1.07,1.07,0,0,0,.93,1.6h9.19a1,1,0,0,0,.88-1.51l-3.93-6.81A1.84,1.84,0,0,0,45.3,46.84Z"/><path d="M40.31,67.59c7.9-.18,16.85-.8,22.63-6.85.11-.13.33,0,.2.18A18.36,18.36,0,0,1,52.52,66.8a50.61,50.61,0,0,1-12.22,1c-.1,0-.1-.17,0-.17Z"/><path class="cls-9" d="M45.59,2.81c-7-3-13-1-23,4.37-4.43,2.37-8.65,14.19-9,16.91-1,8.72.62,18.72.62,18.72s12.15-23.45,14.6-24.24C43.59,13.81,45.59,2.81,45.59,2.81Z"/><path class="cls-9" d="M37.46,2.81c9.13-5,20.89-2.78,31,2.37,9.11,4.63,13.65,17.19,14,19.91,1,8.72-2.62,17.72-2.62,17.72s-10.24-20-20.6-21.24C43.83,19.72,37.46,2.81,37.46,2.81Z"/><polygon class="cls-10" points="68.59 85.92 63.86 88.57 60.01 83.42 64.71 87.04 68.59 85.92"/><polygon class="cls-10" points="65.52 93.31 62.68 94.91 60.36 91.81 63.19 93.99 65.52 93.31"/></g></g></svg>